<svg width="1280" height="720" xmlns="http://www.w3.org/2000/svg" xmlns:xlink="http://www.w3.org/1999/xlink" overflow="hidden"><defs><filter id="fx0" x="-10%" y="-10%" width="120%" height="120%" filterUnits="userSpaceOnUse" primitiveUnits="userSpaceOnUse"><feComponentTransfer color-interpolation-filters="sRGB"><feFuncR type="discrete" tableValues="0.498039 0.498039"/><feFuncG type="discrete" tableValues="0.498039 0.498039"/><feFuncB type="discrete" tableValues="0.498039 0.498039"/><feFuncA type="linear" slope="0.701961" intercept="0"/></feComponentTransfer><feGaussianBlur stdDeviation="6.66667 6.66667"/></filter><filter id="fx1" x="-10%" y="-10%" width="120%" height="120%" filterUnits="userSpaceOnUse" primitiveUnits="userSpaceOnUse"><feComponentTransfer color-interpolation-filters="sRGB"><feFuncR type="discrete" tableValues="0 0"/><feFuncG type="discrete" tableValues="0 0"/><feFuncB type="discrete" tableValues="0 0"/><feFuncA type="linear" slope="0.2" intercept="0"/></feComponentTransfer><feGaussianBlur stdDeviation="4.44444 4.44444"/></filter><clipPath id="clip2"><rect x="0" y="0" width="1280" height="720"/></clipPath><radialGradient cx="1838325" cy="6858000" r="7100113" fx="1838325" gradientUnits="userSpaceOnUse" spreadMethod="pad" id="fill3" gradientTransform="scale(0.000104987 0.000104987)"><stop offset="0" stop-color="#798EF7"/><stop offset="0.43" stop-color="#3734D9"/><stop offset="0.99" stop-color="#040645"/><stop offset="1" stop-color="#040645"/></radialGradient><clipPath id="clip4"><rect x="-8" y="-17" width="1322" height="137"/></clipPath><clipPath id="clip5"><rect x="0" y="0" width="1308" height="119"/></clipPath><linearGradient x1="619.926" y1="-131.607" x2="653.074" y2="158.607" gradientUnits="userSpaceOnUse" spreadMethod="reflect" id="fill6"><stop offset="0" stop-color="#798EF7"/><stop offset="0.43" stop-color="#3734D9"/><stop offset="0.99" stop-color="#040645"/><stop offset="1" stop-color="#040645"/></linearGradient></defs><g clip-path="url(#clip2)"><rect x="0" y="0" width="1280" height="720" fill="#F2F2F2"/><g filter="url(#fx0)" transform="translate(-16 -16)"><g><rect x="20.714" y="20.714" width="193" height="720" fill="#FF0000"/></g></g><rect x="0" y="0" width="193" height="720" fill="url(#fill3)"/><g clip-path="url(#clip4)" filter="url(#fx1)" transform="translate(-14 -14)"><g clip-path="url(#clip5)"><path d="M12.6814 1.58565C12.6814 1.28417 13.4194 2.21252 13.7141 2.21252L1296.81 2.21252C1297.11 2.21252 1293.35 2.38071 1293.35 2.68219 1298.39 0.579941 1293.76-27.0804 1294.15 2.26919 1294.15 2.57067 1291.77 3.87936 1291.48 3.87936 1132.03 6.61559 1279.67-92.4214 916.5-10.942 826.214 4.66483 880.026 9.80823 768.657-3.79705 372.03-42.8141 239.154 96.0251 13.7141 103.828 13.4194 103.828 9.82843 50.2269 9.82843 49.9254 9.82843 21.3579 12.6814 30.1532 12.6814 1.58565Z" fill="#FF0000" fill-rule="evenodd"/></g></g><path d="M-4.14707-15.2428C-4.14707-15.5443-3.40904-14.6159-3.11433-14.6159L1279.98-14.6159C1280.28-14.6159 1276.52-14.4477 1276.52-14.1462 1281.57-16.2485 1276.94-43.9088 1277.32-14.5592 1277.32-14.2578 1274.95-12.9491 1274.65-12.9491 1115.2-10.2128 1262.84-109.25 899.672-27.7704 809.386-12.1636 863.197-7.0202 751.828-20.6255 355.202-59.6425 222.326 79.1967-3.11433 87-3.40904 87-7 33.3985-7 33.097-7 4.5295-4.14707 13.3247-4.14707-15.2428Z" fill="url(#fill6)" fill-rule="evenodd"/></g></svg>